SplineFontDB: 3.0
FontName: AbhayaLibre-ExtraBold
FullName: AbhayaLibre-ExtraBold
FamilyName: AbhayaLibre
Weight: Bold
Copyright: Copyright (c) 1997-2015 Pushpananda Ekanayake (http://isiwara.lk), Copyright (c) 2015 mooniak (http://mooniak.com)\n
UComments: "2015-2-15: Created with FontForge (http://fontforge.org) The  Free Font Editor"
Version: 1.0
ItalicAngle: 0
UnderlinePosition: -99
UnderlineWidth: 49
Ascent: 800
Descent: 200
InvalidEm: 0
UFOAscent: 799.805
UFODescent: -200.195
LayerCount: 2
Layer: 0 0 "Back" 1
Layer: 1 0 "Fore" 0
PreferredKerning: 4
FSType: 0
OS2Version: 0
OS2_WeightWidthSlopeOnly: 0
OS2_UseTypoMetrics: 0
CreationTime: 1429518268
ModificationTime: 1434646368
PfmFamily: 16
TTFWeight: 400
TTFWidth: 5
LineGap: 92
VLineGap: 0
OS2TypoAscent: 800
OS2TypoAOffset: 0
OS2TypoDescent: -200
OS2TypoDOffset: 0
OS2TypoLinegap: 92
OS2WinAscent: 896
OS2WinAOffset: 0
OS2WinDescent: 200
OS2WinDOffset: 0
HheadAscent: 896
HheadAOffset: 0
HheadDescent: -200
HheadDOffset: 0
OS2CapHeight: 0
OS2XHeight: 0
OS2Vendor: 'PfEd'
OS2UnicodeRanges: 00000002.00000000.00000000.00000000
Lookup: 4 0 0 "'abvs' Above Base Substitutions in Sinhala lookup 2" { "'abvs' Above Base Substitutions in Sinhala lookup 2-1"  } ['abvs' ('sinh' <'dflt' > ) ]
Lookup: 1 0 0 "'ordn' Ordinals lookup 1" { "'ordn' Ordinals lookup 1-1"  } ['ordn' ('DFLT' <'dflt' > 'hani' <'dflt' > 'latn' <'dflt' > 'sinh' <'dflt' > ) ]
Lookup: 4 0 1 "'liga' Standard Ligatures lookup 1" { "'liga' Standard Ligatures lookup 1-1"  } ['liga' ('DFLT' <'dflt' > 'hani' <'dflt' > 'latn' <'dflt' > ) ]
Lookup: 258 0 0 "'kern' Horizontal Kerning lookup 0" { "'kern' Horizontal Kerning lookup 0-1" [153,15,0] } ['kern' ('DFLT' <'dflt' > 'hani' <'dflt' > 'latn' <'dflt' > ) ]
MarkAttachClasses: 1
DEI: 91125
KernClass2: 7 7 "'kern' Horizontal Kerning lookup 0-1"
 1 A
 7 T Y P F
 9 f r v w y
 1 L
 3 W V
 0 
 7 W V T Y
 12 period comma
 17 a e s o q d c g u
 1 A
 5 w v t
 15 semicolon colon

StartChar: anusvara
Encoding: 236 -1 0
Width: 1024
VWidth: 893
Flags: M
LayerCount: 2
Back
SplineSet
1220.97070312 486 m 0
 1161.97070312 486 l 0
 1161.97070312 564 l 0
 1161.97070312 732 l 0
 1220.97070312 718 l 0
 1220.97070312 574 l 0
 1220.97070312 486 l 0
EndSplineSet
Fore
EndChar

StartChar: si_NnI
Encoding: 237 -1 1
Width: 1024
VWidth: 893
LayerCount: 2
Back
SplineSet
1055.97070312 498 m 0
 951.970703125 498 l 0
 964.41796875 517.34375 967.970703125 553.9375 967.970703125 576 c 0
 967.970703125 628 988.633789062 704 913.970703125 704 c 0
 836.62890625 704 776.970703125 671.231445312 776.970703125 636 c 0
 776.970703125 577.78125 785.970703125 568 785.970703125 568 c 1
 683.970703125 568 l 1
 667.970703125 588 662.970703125 619.814453125 662.970703125 646 c 0
 662.970703125 769.171875 783.970703125 808 913.970703125 808 c 0
 1038.17285156 808 1079.97070312 711 1079.97070312 586 c 0
 1079.97070312 548.223632812 1066.54589844 507.360351562 1055.97070312 498 c 0
EndSplineSet
Fore
EndChar

StartChar: si_A
Encoding: 2 3461 2
GlifName: uni0D_85
Width: 573
Flags: HW
LayerCount: 2
Back
Fore
SplineSet
428 200 m 0
 414.666666667 200 400 202 384 207 c 9
 384 236 l 17
 393 231 403.666992188 230 411 230 c 0
 440.169921875 230 453 254 453 287 c 0
 453 311 446 332 437 346 c 0
 426.190429688 362.814453125 420.451171875 372 420.451171875 394 c 0
 420.451171875 395.934570312 420.681640625 401.931640625 421 404 c 1
 438 418 l 0
 457 421 l 1
 451 418 445 414 445 403 c 0
 445 369 528 359 528 281 c 0
 528 225 479.320433706 200 428 200 c 0
464 424 m 1
 393 394 388 350 388 311 c 2
 388 -215 l 1
 356 -215 l 1
 356 -39 356 137 356 313 c 0
 356 350 364 378 383 400 c 0
 398.125818599 417.514105747 419 429.666666667 439 435 c 1
 464 424 l 1
523 51 m 1
 472 17 386 -4 282 -4 c 0
 118 -4 33 62 33 160 c 0
 33 248 94 309 202 309 c 2
 312 309 l 1
 311 348 288 389 242 389 c 0
 206 389 200 370 194 358 c 0
 187.188245454 344.376490907 172 329 147 329 c 0
 125 329 106 344.66015625 106 369 c 0
 106 410 154 433 211 433 c 0
 295 433 344.0234375 382 344.0234375 290 c 0
 344.0234375 289.002929688 344.014648438 287.002929688 344 286 c 1
 301 286 l 2
 193 286 179 200 179 164 c 0
 179 88 237 32 330 32 c 0
 418 32 480 52 523 85 c 1
 523 51 l 1
EndSplineSet
EndChar

StartChar: si_E
Encoding: 14 3473 3
GlifName: uni0D_91
Width: 595
Flags: HW
LayerCount: 2
Back
Fore
SplineSet
498 296 m 0
 498 352.666992188 484 387 471 410 c 1
 456 379 426 359 383 359 c 0
 319.844284656 359 283 414 283 480 c 0
 283 530 298 566 325 597 c 1
 386 564 456.96484375 492.2421875 493 430 c 0
 531.783203125 363.01171875 545 315 545 245 c 0
 545 117 459 0 276 0 c 0
 155 0 45 46 45 165 c 0
 45 195.720703125 54.775390625 227.831054688 78 248 c 0
 94.126953125 262.004882812 113 273 139 278 c 1
 172.760742188 290.19921875 213.875 302 251 302 c 2
 261 302 l 5
 261.08203125 304.041015625 261.0859375 306.041015625 261.0859375 308 c 4
 261.0859375 356 230 389 193 389 c 132
 170 389 152.745215065 371.085326199 147.5 355 c 132
 140 332 128 321 102 321 c 4
 84 321 64 333.368164062 64 359 c 4
 64 406 114 431.5 169 431.5 c 4
 257 431.5 295.146484375 363 295.146484375 290 c 4
 295.146484375 286.721679688 295.100585938 278.387695312 295 275 c 5
 229 275 l 2
 184.559570312 275 157.285236679 268.553272924 134 254 c 0
 118 244 108 226 108 206 c 0
 108 148 193 132 279 132 c 0
 432 132 498 205 498 296 c 0
129 275 m 2
 58 274 32 270.666992188 16 268 c 1
 16 302 l 1
 259 302 l 1
 291 275 l 1
 129 275 l 2
450 440 m 1
 420 484 372 530 334 558 c 1
 325 543 316 522.666992188 316 488 c 0
 316 438.666992188 342 403 390 403 c 0
 414 403 441 414 450 440 c 1
EndSplineSet
EndChar

StartChar: si_U
Encoding: 8 3467 4
GlifName: uni0D_8B_
Width: 651
Flags: HW
LayerCount: 2
Back
Fore
SplineSet
539 269 m 1
 345 269 l 2
 221 269 179 210.638671875 179 117 c 0
 179 -23 287 -105 385 -105 c 0
 478 -105 572 -34 572 69 c 1
 603 69 l 1
 603 -64 480 -161 328 -161 c 0
 177 -161 32 -62 32 99 c 0
 32 210 121 296 264 296 c 2
 505 296 l 1
 502 346 457 385 413 385 c 0
 393 385 372.69921875 377.104492188 359 354.5 c 128
 351.454101562 342.049804688 336 326 311 326 c 0
 282 326 267 345.182366328 267 365 c 0
 267 410 313 431.5 376 431.5 c 0
 468.871700649 431.5 539.074783684 370 539.074783684 275.999995706 c 0
 539.074783684 274.341975608 539.048828125 270.674804688 539 269 c 1
EndSplineSet
EndChar

StartChar: si_Ka
Encoding: 20 3482 5
GlifName: uni0D_9A_
Width: 746
Flags: HW
LayerCount: 2
Back
Fore
SplineSet
111 323 m 0
 104 305 87 297 72 297 c 128
 35 297 29 328 29 340 c 0
 29 394.098632812 79.3632281498 433 136 433 c 0
 188.347731079 433 225 399 225 350 c 0
 225 349 225 348 225 346 c 1
 284 401 366 434 453 434 c 0
 603 434 701.000000002 328 701 192 c 0
 700.999999999 109.999777824 658 -1 550 -1 c 0
 540 -1 520 0 504 12 c 1
 506 40 l 1
 515 33 532 28 549 28 c 0
 594 28 616 73 616 119 c 0
 616 262 486 345 353 345 c 0
 289 345 244 328 214 304 c 1
 244 312 277.666992188 314 305 314 c 0
 425 314 515 250 515 126 c 0
 515 67.8472233203 482 -1 397 -1 c 0
 351 -1 317.333333333 20.3333333333 296 63 c 1
 278.666666667 21.6666666667 246.021148364 -1 204 -1 c 0
 117 -1 120 73 87 73 c 0
 64.6748046875 73 52 51 49 11 c 1
 21 22 l 1
 28.6966338402 91.2697045622 74.2942734931 184.279626053 109 232 c 0
 135 268 163 297.333007812 193 324 c 1
 194 329 194 335.435546875 194 341 c 0
 194 368 183.408203125 387 158 387 c 0
 144 387 127.336974444 378.248498411 122 363 c 0
 115 343 117.653320312 340.109375 111 323 c 0
180 268 m 1
 162.666992188 253.333007812 146.522390704 234.996134377 131 212 c 0
 104 172 98 158 88 138 c 1
 100 148 114 152 124 152 c 0
 156 152 172 132 212 132 c 0
 250 132 281 142.864257812 281 203 c 0
 281 205.208984375 281.041015625 202.3046875 281 204 c 1
 307 204 l 1
 306.963867188 202.6640625 307 204.330078125 307 203 c 0
 307 137.926757812 341 132 379 132 c 0
 420 132 448 156 448 198 c 0
 448 244 402 287 301 287 c 0
 244.333007812 287 204.666992188 280 180 268 c 1
EndSplineSet
EndChar

StartChar: si_Ii
Encoding: 7 3466 6
GlifName: uni0D_8A_
Width: 528
Flags: HW
LayerCount: 2
Back
Fore
SplineSet
409.65625 468.34375 m 0
 409.65625 447.361328125 426.670898438 430.346679688 447.653320312 430.346679688 c 0
 468.635742188 430.346679688 485.650390625 447.361328125 485.650390625 468.34375 c 0
 485.650390625 489.326171875 468.635742188 506.340820312 447.653320312 506.340820312 c 0
 426.670898438 506.340820312 409.65625 489.326171875 409.65625 468.34375 c 0
382.01953125 468 m 0
 382.01953125 504.245117188 411.408203125 533.633789062 447.653320312 533.633789062 c 0
 483.8984375 533.633789062 513.287109375 504.245117188 513.287109375 468 c 0
 513.287109375 431.754882812 483.8984375 402.366210938 447.653320312 402.366210938 c 0
 411.408203125 402.366210938 382.01953125 431.754882812 382.01953125 468 c 0
144.65625 538.34375 m 0
 144.65625 517.361328125 161.670898438 500.346679688 182.653320312 500.346679688 c 0
 203.635742188 500.346679688 220.650390625 517.361328125 220.650390625 538.34375 c 0
 220.650390625 559.326171875 203.635742188 576.340820312 182.653320312 576.340820312 c 0
 161.670898438 576.340820312 144.65625 559.326171875 144.65625 538.34375 c 0
117.01953125 538 m 0
 117.01953125 574.245117188 146.408203125 603.633789062 182.653320312 603.633789062 c 0
 218.8984375 603.633789062 248.287109375 574.245117188 248.287109375 538 c 0
 248.287109375 501.754882812 218.8984375 472.366210938 182.653320312 472.366210938 c 0
 146.408203125 472.366210938 117.01953125 501.754882812 117.01953125 538 c 0
170 422 m 0
 223.263083971 449.696803665 263 482 292 518 c 0
 310.26202244 540.670096822 320.45714729 564.821943457 331.339571102 584.999998969 c 0
 344.055770326 608.578218151 358.591086662 626 392 626 c 0
 418 626 430 611 430 594 c 0
 430 574 407.640543289 549.698339844 359 509 c 0
 326.333007812 481.666992188 294 462 247 436 c 1
 252 437 253.262695312 437 262 437 c 0
 333 437 388 413 429.5 366.5 c 128
 465.350590935 326.33006076 482 281.003971989 482 225 c 0
 482 102 383.523302632 0 248 0 c 0
 123.953919804 0 31 89.1821923439 31 213 c 0
 31 322.52211473 94.1602958814 382.563353858 170 422 c 0
74 250 m 0
 74 192 117.981445312 127 226 127 c 0
 331 127 411 183 411 283 c 0
 411 366 351.594726562 412 260 412 c 0
 182 412 74 352 74 250 c 0
EndSplineSet
EndChar

StartChar: si_Os
Encoding: 17 3476 7
GlifName: uni0D_94
Width: 636
Flags: HW
LayerCount: 2
Back
Fore
SplineSet
274 361 m 0
 274 335 295 314 321 314 c 0
 347 314 368 335 368 361 c 0
 368 387 347 408 321 408 c 0
 295 408 274 387 274 361 c 0
388 331 m 1
 383 316 362 285 318 285 c 0
 271.34375 285 243 322 243 360 c 256
 243 402 274 434 322 434 c 4
 384 434 420 389 420 330 c 0
 420 265 367 223 296 223 c 0
 225.254882812 223 172 264 172 339 c 0
 172 344.219726562 172.27544052 362.934877611 172.27544052 371.999999557 c 0
 172.27544052 392 168.198242188 404 145 404 c 0
 94 404 70 329 70 275 c 0
 70 187 119 132 202 132 c 0
 276 132 292 161.666992188 292 195 c 2
 292 204 l 1
 318 204 l 1
 318 194 l 2
 318 161 340 133 405 133 c 0
 500.55859375 133 538 224 538 312 c 0
 538 436 458 553 298 553 c 0
 199 553 140 522 94 466 c 1
 62 466 l 1
 107 531 175 578 302 578 c 0
 486 578 590 431.114542606 590 254 c 0
 590 126.500578052 543 0 406 0 c 0
 365 0 321 16 305 55 c 1
 283 15 246 0 196 0 c 0
 78 0 30 127 30 224 c 0
 30 332 74 431.5 148 431.5 c 0
 167.006835938 431.5 175 428 182 423 c 0
 192.609375 415.421875 200.873046875 401 200.873046875 371 c 0
 200.873046875 357 201 340.014648438 201 337 c 0
 201 284 240 254 295 254 c 0
 348 254 389 281 389 326 c 0
 389 327 389 329 388 331 c 1
EndSplineSet
EndChar

StartChar: si_Tta
Encoding: 33 3495 8
GlifName: uni0D_A_7
Width: 603
Flags: HW
LayerCount: 2
Back
Fore
SplineSet
92.904296875 255.756835938 m 0
 92.904296875 168 188 132 278 132 c 0
 401 132 495.0859375 192 495.0859375 316.66015625 c 4
 495.0859375 431.5 418 551.084960938 275.440429688 551.084960938 c 0
 194.708007812 551.084960938 134 523 92 470 c 9
 57 470 l 17
 103.927953012 539.371756626 176.649876667 577.079858394 273.087127664 577.079858394 c 0
 446.243363388 577.079858394 557.006697374 433.236971394 557.006697374 271.182978806 c 0
 557.006697374 115.25051458 447.244413075 -1.15398720145 285.242387952 -1.15398720145 c 0
 132.917850402 -1.15398720145 31.5960301257 80.6392374287 31.5960301257 207.869486361 c 0
 31.5960301257 322.618280415 126.170095138 391.378618529 232.000003444 391.378618529 c 0
 259 391.378618529 291.655125054 386.085841646 321 375 c 9
 321 344 l 17
 293.88671875 356.911132812 266 363.3515625 234 363.3515625 c 0
 154 363.3515625 92.904296875 322 92.904296875 255.756835938 c 0
EndSplineSet
EndChar

StartChar: si_I
Encoding: 6 3465 9
GlifName: uni0D_89
Width: 593
Flags: HW
LayerCount: 2
Back
Fore
SplineSet
273.107421875 14.4248046875 m 0
 289.881835938 14.4248046875 306.879882812 12.3076171875 324.408203125 12.3076171875 c 0
 422 12.3076171875 483 72 483 159 c 0
 483 245 412 322 285 322 c 0
 168 322 94.419921875 270 94.419921875 187.134765625 c 0
 94.419921875 132 142 81.98046875 223.573242188 81.98046875 c 0
 277 81.98046875 317 96 333 120 c 1
 318 108 299.454101562 103.978515625 285.064453125 103.978515625 c 0
 241 103.978515625 206 138.5703125 206 179 c 0
 206 225.263671875 240 260.68359375 286.35546875 260.68359375 c 4
 343.78515625 260.68359375 378 224 378 170 c 0
 378 90 310 54 220 54 c 0
 113 54 32.769301342 116.842503605 32.769301342 220.978179218 c 0
 32.769301342 356.900041772 140.744852569 432.229789777 284.186584566 432.229789777 c 0
 443.73633693 432.229789777 544.072655356 353.230064025 544.072655356 198.289822617 c 0
 544.072655356 92.3992805878 472.804973932 9.9053684654 384 -6 c 1
 417.360050834 -12.0654637881 439.019305478 -35.5646106219 439.019305478 -74.6171329825 c 0
 439.019305478 -134.43844808 364.215441002 -160.272357038 298.362581423 -160.272357038 c 0
 236.041211731 -160.272357038 172.567829085 -139.055521608 172.567829085 -75.6591555653 c 0
 172.567829085 -50.1902726369 190.396707259 -38.4572252022 206.999999554 -38.4572252022 c 0
 222 -38.4572252022 237 -47.7724609375 237 -65 c 0
 237 -70.548828125 233.331054688 -81.8984375 233.331054688 -94 c 0
 233.331054688 -114 247 -136.407226562 300.489257812 -136.407226562 c 0
 339.3828125 -136.407226562 369.052734375 -120.936523438 369.052734375 -83.3779296875 c 0
 369.052734375 -40.6171875 334.405273438 -14.646484375 267.46875 -14.646484375 c 0
 258.713867188 -14.646484375 258.543945312 -15.0908203125 249 -16 c 1
 249 13 l 1
 260.678710938 13.9736328125 262.404296875 14.4248046875 273.107421875 14.4248046875 c 0
288 231 m 0
 260.409179688 231 238 208.654296875 238 182 c 0
 238 154.345703125 261.333007812 133 288 133 c 0
 315.590820312 133 338 155.345703125 338 182 c 0
 338 209.654296875 314.666992188 231 288 231 c 0
EndSplineSet
EndChar

StartChar: si_Na
Encoding: 43 3505 10
GlifName: uni0D_B_1
Width: 806
Flags: HW
LayerCount: 2
Back
Fore
SplineSet
268 296 m 1
 293.869140625 305.341796875 317.103110119 308.102003375 345.043984241 308.102003375 c 0
 428.954738746 308.102003375 498.167706599 248.943565796 498.167706599 168.852729339 c 0
 498.167706599 52.8253283098 398.034743185 -1.12218963832 276.065197429 -1.12218963832 c 0
 142 -1.12218963832 28 52 24 160 c 1
 34 154 51 148.127929688 67 148.127929688 c 0
 133 148.127929688 132 208 214 285 c 1xb7
 221 296 221.818359375 309.123046875 221.818359375 322 c 0
 221.818359375 356 207.328125 382.551757812 181.461914062 382.551757812 c 0
 159 382.551757812 143 370 140.747070312 345 c 0
 138.766277487 323.019810864 125 295 97 295 c 0
 81 295 55.1414577919 304 55.1414577919 338.999999066 c 0
 55.1414577919 384.002988141 89.0173697483 431 154 431 c 0xaf
 219.024722972 431 253.021412916 387 253.021412916 320.000003596 c 0
 253.021412916 319.004857764 253.014776925 318.004830877 253 317 c 1
 303.120666674 374.7809841 400.63630409 432.778158251 505.999705561 432.778158251 c 0
 646 432.778158251 760 335.012578119 760 183 c 0
 760 62.6098238798 687 -1.2212249427 613.000002085 -1.2212249427 c 0
 588.31102476 -1.2212249427 563.69220406 6.1181390751 542 21 c 1
 555 45 l 5
 572 35 588 29.3466796875 604 29.3466796875 c 0
 646 29.3466796875 668 58 668 126 c 0
 668 264 542 342 405 342 c 0
 352 342 302 330 268 296 c 1
334 282 m 0
 185 282 193 186 129 143 c 1
 160 132 205.904296875 129 264 129 c 0
 374.491210938 129 431 150.991210938 431 207 c 0
 431 250 394 282 334 282 c 0
EndSplineSet
EndChar

StartChar: si_Ca
Encoding: 26 3488 11
GlifName: uni0D_A_0
Width: 597
Flags: HW
LayerCount: 2
Back
Fore
SplineSet
319 275 m 1
 269 275 l 2
 214 275 181 267 158 255 c 0
 129.712890625 240.241210938 121 220 121 202 c 0
 121 148 208 132 298 132 c 0
 451 132 523 208 523 324 c 0
 523 443 437.498046875 551 303 551 c 0
 223.666992188 551 162 522 118 470 c 1
 84 470 l 1
 132.666992188 540 205 577 303 577 c 0
 463.151367188 577 575 443 575 274 c 0
 575 114 478 0 295 0 c 0
 174 0 64 46 64 165 c 0
 64 195.720344964 73.7752888432 227.83117189 97 248 c 0
 113.127026077 262.005048961 132 273 158 278 c 1
 191.760742188 290.19921875 232.875230528 302 270 302 c 2
 285 302 l 1
 285.08203125 304.041015625 285.0859375 306.041015625 285.0859375 308 c 0
 285.0859375 358 254 391 218 391 c 128
 182 391 170 371 164.5 355 c 128
 157.951171875 335.948242188 150 321 121 321 c 0
 101 321 83 333.368164062 83 359 c 0
 83 406 133 431.5 188 431.5 c 0
 276 431.5 319.146484375 376 319.146484375 290 c 0
 319.146484375 286.721679688 319.100585938 278.387695312 319 275 c 1
148 275 m 2
 77 274 29 270.666992188 13 268 c 1
 13 302 l 1
 283 302 l 1
 315 275 l 1
 148 275 l 2
EndSplineSet
EndChar

StartChar: si_Va
Encoding: 54 3520 12
GlifName: uni0D_C_0
Width: 597
Flags: HW
LayerCount: 2
Back
Fore
SplineSet
292 278 m 1
 209 278 l 2
 135 278 97 252 97 210 c 0
 97 148 186 132 270 132 c 0
 423 132 496 208 496 314 c 0
 496 440 410.498046875 551 276 551 c 0
 196.666992188 551 135 522 91 470 c 1
 57 470 l 1
 105.666666667 540 178 577 276 577 c 0
 436.151392369 577 548 443 548 274 c 0
 548 114 450 0 267 0 c 0
 146 0 33 46 33 165 c 0
 33 250 98 304 199 304 c 2
 257 304 l 1
 257.08203125 306.041015625 257.0859375 306.041015625 257.0859375 308 c 0
 257.0859375 358 226 389 189 389 c 128
 155 389 142 371 136.5 355 c 128
 129.951171875 335.948242188 121 321 95 321 c 0
 76 321 56 333.368164062 56 359 c 0
 56 406 106 431.5 161 431.5 c 0
 249 431.5 292.146076529 376 292.146076529 290.0000267 c 0
 292.146076529 286.721575577 292.100585938 281.387695312 292 278 c 1
EndSplineSet
EndChar

StartChar: si_Pa
Encoding: 45 3508 13
GlifName: uni0D_B_4
Width: 616
Flags: HW
LayerCount: 2
Back
Fore
SplineSet
158.189212207 433.625654084 m 0
 245.654776359 433.625654084 288.27136319 384.305298964 271 297 c 1
 253.180664062 299.375976562 218.23046875 300.717773438 217 300.717773438 c 0
 139.720703125 300.717773438 90 280 90 226 c 0
 90 153 206 132 307 132 c 0
 404 132 518 157 518 230 c 0
 518 278 472 302.612304688 394 302.612304688 c 0
 370.819335938 302.612304688 346.926757812 300.168945312 324 296 c 1
 308.697658933 382.713266049 354.048063225 433.118522656 438.844851469 433.118522656 c 0
 505 433.118522656 541.018818118 392.966132064 541.018818118 354.00000109 c 0
 541.018818118 334 532.547911667 316.666882281 514 303 c 1
 554.33230994 279.472819202 574.005875264 240.742748716 574.005875264 186.451529958 c 0
 574.005875264 55.5619188946 447.644682871 0 307 0 c 0
 158.589562849 0 31.3313942639 45.9203100819 31.3313942639 183.554236057 c 0
 31.3313942639 274.623686336 99.2296726839 326.928127469 206.999992832 326.928127469 c 0
 220 326.928127469 230.208007812 326.2890625 243 325 c 1
 248.423093576 369.99329331 223.165976927 393.274414062 192 393.274414062 c 0
 159.969726562 393.274414062 147.476129954 378.539648874 141.653320312 360 c 0
 136 342 120 328.073242188 97 328.073242188 c 0
 81 328.073242188 57.3251953125 338 57.3251953125 368 c 0
 57.3251953125 409 103 433.625654084 158.189212207 433.625654084 c 0
487 315 m 1
 498.33203125 325.703125 503.478515625 338.485351562 503.478515625 351 c 0
 503.478515625 380 479 404.638085784 432.00000156 404.638085784 c 0
 385.887030481 404.638085784 347.807859128 376.744184413 355 325 c 1
 371.955078125 327.0546875 387.344972512 328.097600692 402.999995377 328.097600692 c 0
 436 328.097600692 462.459960938 323.764648438 487 315 c 1
EndSplineSet
EndChar

StartChar: si_Gha
Encoding: 23 3485 14
GlifName: uni0D_9D_
Width: 677
Flags: HW
LayerCount: 2
Back
Fore
SplineSet
187 431.5 m 0
 279.808991182 431.5 315.474841872 364.351712723 313 281 c 1
 220 281 l 2
 198.951628835 281 176.010624296 276.11069712 156.000001209 266.833183809 c 0
 125.623683887 252.749829829 102 228.554489756 102 196 c 0
 102 147 152 131 193 131 c 0
 211 131 233 133 240 139 c 1
 240 149.505072703 241.244968215 159.182471262 243.574758027 167.9999928 c 0
 254.551624215 209.543978242 289.609881952 232 332 232 c 0
 371.36699979 232 403.283227117 214.232773355 416.467352825 180.000011891 c 0
 420.698182294 169.014605712 423 156.333596392 423 142 c 1
 431 135 450.705078125 131 482 131 c 0
 526 131 579 153 579 203 c 0
 579 251 538 289 448 289 c 0
 412 289 386 287 353 280 c 1
 348.483392784 370.213286241 396.89949083 432 478 432 c 0
 532 432 579 405 579 351 c 0
 579 329.666992188 569 308 550 297 c 1
 597.333333333 273.666666667 628 221.08203125 628 166 c 0
 628 58 555.929102634 0 464 0 c 0
 440 0 412.666666667 4 382 12 c 1
 379 16 378 40.3330078125 378 47 c 0
 378 87.9709460896 402.324219484 114.653632536 389.721784043 159.999998865 c 0
 382.926643214 184.450427254 365.10587748 202 332 202 c 0
 296.972141154 202 278.421928629 186.156109306 272.313161941 158.000003343 c 0
 262.118025269 111.009282775 281 99.6063416282 281 47 c 256
 281 39.6669921875 280 17 277 11 c 1
 246 2 217.666666667 -1 199 -1 c 0
 108.173759358 -1 51 76 51 154 c 0
 51 226 92 267 144 283 c 1
 177.760742188 295.19921875 232 308 269 308 c 2
 279 308 l 1
 280.822774469 353.35236476 249.052956827 389 211 389 c 128
 188 389 172.573067266 374.804588344 165.5 355 c 128
 158 334 146 321 120 321 c 0
 102 321 82 333.368164062 82 359 c 0
 82 406 132 431.5 187 431.5 c 0
5 308 m 1
 277 308 l 1
 309 281 l 1
 147 281 l 2
 76 281 21 276.666992188 5 274 c 1
 5 308 l 1
384 310 m 1
 397 314 419 316 445 316 c 0
 479 316 508 312 522 307 c 1
 531 314 539 326 539 344 c 256
 539 376 500 390 471 390 c 0
 419 390 388.666992188 364.666992188 384 310 c 1
EndSplineSet
EndChar

StartChar: si_Ga
Encoding: 22 3484 15
GlifName: uni0D_9C_
Width: 636
Flags: HW
LayerCount: 2
Back
Fore
SplineSet
233 406 m 1
 229.64453125 406.284179688 225.310546875 406.450195312 222 406.450195312 c 0
 136 406.450195312 80 334 80 252 c 0
 80 172 129 132 206 132 c 0
 265 132 298 159 298 186 c 0
 298 213 276 216 269 216 c 0
 258 216 250 213 245 210 c 1
 244 204 243 195.333007812 243 192 c 1
 216 192 l 1
 226.196066844 316.90181884 288 431.5 410 431.5 c 0
 522 431.5 586 332 586 217 c 0
 586 95 500.052817527 -1 369 -1 c 0
 359 -1 348.666666667 -0.333333333333 338 1 c 1
 338 28 l 1
 346 27 354 26 362 26 c 0
 469 26 510 98 510 166 c 0
 510 242 464 326 361 326 c 4
 290 326 260 284 249 237 c 1
 255 240 263.333007812 242 270 242 c 0
 320 242 352 202 352 136 c 0
 352 56 295 -2 208 -2 c 0
 97 -2 34 96 34 207 c 0
 34 330 109 431.5 220 431.5 c 0
 223.953128016 431.5 228.954101562 431.25 233 431 c 1
 233 406 l 1
EndSplineSet
EndChar

StartChar: si_Kha
Encoding: 21 3483 16
GlifName: uni0D_9B_
Width: 630
Flags: HW
LayerCount: 2
Back
Fore
SplineSet
92.4423828125 73 m 0
 92.4423828125 48.5986328125 112.598632812 28.4423828125 137 28.4423828125 c 0
 161.401367188 28.4423828125 181.557617188 48.5986328125 181.557617188 73 c 0
 181.557617188 97.4013671875 161.401367188 117.557617188 137 117.557617188 c 0
 112.598632812 117.557617188 92.4423828125 97.4013671875 92.4423828125 73 c 0
73 103 m 1
 79 128 107 148 137 148 c 0
 179 148 212 120 212 74 c 0
 212 37 182 -1 141 -1 c 0
 56 -1 32 108 32 183 c 0
 32 322 123.838867188 396 240 396 c 0
 333 396 413 343.14453125 413 258 c 0
 413 201 388 172 376 153 c 5
 379.333007812 153.666992188 382.333007812 154 385 154 c 0
 414 154 406 128 444 128 c 0
 504 128 533 211 533 314 c 0
 533 466 445 574 294 574 c 0
 205 574 140 540 99 470 c 1
 64 470 l 1
 108.666666667 553.333333333 186 601 298 601 c 0
 464 601 584 473 584 286 c 0
 584 150 524 0 416 0 c 0
 352 0 348 54 321 54 c 256
 308 54 282 34 240 -21 c 1
 202 -18 l 1
 215.333007812 -4.6669921875 244.0859375 34.025390625 286 84 c 0
 338 146 351 174 351 206 c 0
 351 241 328 283 236 283 c 0
 149 283 66 229 66 144 c 0
 66 132 67 120 73 103 c 1
EndSplineSet
EndChar

StartChar: si_Ha
Encoding: 58 3524 17
GlifName: uni0D_C_4
Width: 653
Flags: HW
LayerCount: 2
Back
Fore
SplineSet
263 182 m 5
 239 192 l 5
 248 317 329.087366383 432.009345794 430.301685736 432.009345794 c 4
 542.17352523 432.009345794 605.018348624 328.650705644 605.018348624 210.961535223 c 4
 605.018348624 92.0044933398 516 -1.30330825989 392.999994701 -1.30330825989 c 4
 379.685193513 -1.30330825989 365.993045889 -0.266479263683 352 2 c 5
 352 31 l 5
 364.328125 29.0869140625 376.353515625 28.205078125 388 28.205078125 c 4
 487 28.205078125 541.147460938 93.40625 541.147460938 192.821289062 c 4
 541.147460938 250 502.793945312 322 412 322 c 4
 332 322 292 288 271 229 c 5
 280.834632615 234.531980846 290.634007167 237.170373002 300.000001328 237.170373002 c 4
 338 237.170373002 366.162675468 199.139276778 366.162675468 145.349815118 c 4
 366.162675468 52.9926813027 295.501309239 -0.762226007727 201.033156494 -0.762226007727 c 4
 103.482897226 -0.762226007727 32.955072243 61.0614182824 32.955072243 155.113004833 c 4
 32.955072243 246 100 303.35267071 194.00000399 303.35267071 c 4
 197.957701716 303.35267071 200.958984375 303.223632812 205 303 c 5
 205 342 181 380 149 380 c 4
 127 380 117 374 108 352 c 4
 99.8439988976 332.063108416 84 325 70 325 c 4
 50 325 33.0236931219 336 33.0236931219 364.000000718 c 4
 33.0236931219 394.207779183 61.7023205405 432.033407495 118.454977226 432.033407495 c 4
 197.349468601 432.033407495 239 362 239 276 c 5
 227.3203125 277.352539062 215.953125 278.020507812 205 278.020507812 c 4
 125 278.020507812 93.75 244 93.75 207.359375 c 4
 93.75 152 156 131.86328125 208 131.86328125 c 4
 246 131.86328125 318 140 318 188 c 4
 318 202 309 211.412109375 295 211.412109375 c 4
 281.517578125 211.412109375 269.75390625 203.010742188 263 182 c 5
EndSplineSet
EndChar

StartChar: si_Dda
Encoding: 35 3497 18
GlifName: uni0D_A_9
Width: 647
Flags: HW
LayerCount: 2
Back
Fore
SplineSet
76.2109375 373.122070312 m 4
 76.2109375 416 123.100585938 432.166992188 165.279296875 432.166992188 c 4
 244 432.166992188 294 378 295 286 c 5
 224 286 l 6
 130.95703125 286 105.391601562 236 105.391601562 205 c 4
 105.391601562 151 149.990234375 131 203 131 c 0
 267 131 298 152 298 191 c 2
 298 212 l 1
 327 212 l 1
 327 191 l 2
 327 155 353 131 414 131 c 0
 489 131 542.143554688 195 542.143554688 288.217773438 c 0
 542.143554688 429 456 554.08984375 298.46484375 554.08984375 c 0
 217.965820312 554.08984375 156 523 108 468 c 1
 73 468 l 1
 127.257569341 545.9335996 209.737496069 582.020255488 304.118964686 582.020255488 c 0
 478.635692634 582.020255488 597.987383913 444 597.987383913 258.221926564 c 0
 597.987383913 126.285711076 547.007371766 -0.0251311659364 427.655553183 -0.0251311659364 c 0
 363.027670828 -0.0251311659364 334.630436238 28.5207489381 313 59 c 1
 283.406198924 21.686076905 250 0 199 0 c 0
 97.9838045205 0 45.8804869702 81.1902905721 45.8804869702 161.999997835 c 4
 45.8804869702 212 71.048828125 262.198242188 125 286 c 5
 15 286 l 5
 15 315 l 5
 259 315 l 5
 256.1640625 357.533203125 226 388.267578125 198 388.267578125 c 4
 184 388.267578125 168.203125 387.365234375 153 360 c 4
 143 342 130 337.263671875 114 337.263671875 c 4
 94 337.263671875 76.2109375 351 76.2109375 373.122070312 c 4
EndSplineSet
EndChar

StartChar: si_DIi
Encoding: 267 -1 19
GlifName: si_D_I_i
Width: 647
Flags: HW
LayerCount: 2
Back
Fore
SplineSet
259 315 m 1
 256.1640625 357.533203125 226 388.267578125 198 388.267578125 c 0
 184 388.267578125 168.203125 387.365234375 153 360 c 0
 143 342 130 337.263671875 114 337.263671875 c 0
 94 337.263671875 76.2109375 351 76.2109375 373.122070312 c 0
 76.2109375 416 123.100585938 432.166992188 165.279296875 432.166992188 c 0
 244 432.166992188 294 378 295 286 c 1
 224 286 l 2
 130.95703125 286 105.391601562 236 105.391601562 205 c 0
 105.391601562 165 129 132 199 132 c 0
 248.045898438 132 298 145 298 196 c 2
 298 215 l 1
 327 215 l 1
 327 196 l 2
 327 147 375.804284641 132 426 132 c 0
 519 132 546 229 546 286 c 0
 546 431.5 451 454 324 459 c 0
 184.978264205 464.473296685 77 458 77 554 c 0
 77 639 168 670 307 670 c 0
 370.056134001 670 428.875413576 664.280246526 473.999996736 648.453080923 c 4
 526.916119542 629.893081471 561 597.433888569 561 544 c 0
 561 503 534 466 482 460 c 1
 553.215820312 426.765625 598 366.379933741 598 255 c 0
 598 140.589447825 552 0 431 0 c 0
 369.285699916 0 344.342973794 21.3884314468 313 59 c 1
 282.333333333 20.3333333333 246 0 198 0 c 0
 111.406083101 0 46 72.5786159156 46 158 c 0
 46 211 71.048828125 262.198242188 125 286 c 1
 15 286 l 1
 15 315 l 1
 259 315 l 1
412 525 m 0
 412 502 432 484 464 484 c 0
 496 484 518 498 518 522 c 0
 518 553 490 567 463 567 c 0
 430 567 412 547 412 525 c 0
409 479 m 1
 386 489 379 514 379 526 c 0
 379 544.666992188 383 560 396 574 c 1
 362.666992188 577.333007812 324.333007812 580 287 580 c 0
 225 580 138 569 138 526 c 0
 138 508 150 490 273 489 c 0
 315.010330369 488.658452599 375 486 409 479 c 1
EndSplineSet
EndChar
